<?xml version="1.0" encoding="UTF-8" standalone="no"?>
<!DOCTYPE svg PUBLIC "-//W3C//DTD SVG 1.1//EN"
 "http://www.w3.org/Graphics/SVG/1.1/DTD/svg11.dtd">
<!-- Generated by graphviz version 2.38.0 (20140413.2041)
 -->
<!-- Title: G Pages: 1 -->
<svg width="1209pt" height="1806pt"
 viewBox="0.00 0.00 1209.32 1806.00" xmlns="http://www.w3.org/2000/svg" xmlns:xlink="http://www.w3.org/1999/xlink">
<g id="graph0" class="graph" transform="scale(1 1) rotate(0) translate(4 1802)">
<title>G</title>
<polygon fill="white" stroke="none" points="-4,4 -4,-1802 1205.32,-1802 1205.32,4 -4,4"/>
<g id="clust1" class="cluster"><title>cluster_Global</title>
<path fill="none" stroke="gray" d="M684.59,-244C684.59,-244 1181.32,-244 1181.32,-244 1187.32,-244 1193.32,-250 1193.32,-256 1193.32,-256 1193.32,-1778 1193.32,-1778 1193.32,-1784 1187.32,-1790 1181.32,-1790 1181.32,-1790 684.59,-1790 684.59,-1790 678.59,-1790 672.59,-1784 672.59,-1778 672.59,-1778 672.59,-256 672.59,-256 672.59,-250 678.59,-244 684.59,-244"/>
<text text-anchor="middle" x="932.955" y="-1777.2" font-family="Times New Roman,serif" font-size="11.00" fill="gray">Global</text>
</g>
<g id="clust2" class="cluster"><title>cluster_\App</title>
<path fill="none" stroke="gray" d="M692.59,-252C692.59,-252 1173.32,-252 1173.32,-252 1179.32,-252 1185.32,-258 1185.32,-264 1185.32,-264 1185.32,-1750 1185.32,-1750 1185.32,-1756 1179.32,-1762 1173.32,-1762 1173.32,-1762 692.59,-1762 692.59,-1762 686.59,-1762 680.59,-1756 680.59,-1750 680.59,-1750 680.59,-264 680.59,-264 680.59,-258 686.59,-252 692.59,-252"/>
<text text-anchor="middle" x="932.955" y="-1749.2" font-family="Times New Roman,serif" font-size="11.00" fill="gray">App</text>
</g>
<g id="clust4" class="cluster"><title>cluster_\App\Presenters</title>
<path fill="none" stroke="gray" d="M700.59,-1284C700.59,-1284 1165.32,-1284 1165.32,-1284 1171.32,-1284 1177.32,-1290 1177.32,-1296 1177.32,-1296 1177.32,-1722 1177.32,-1722 1177.32,-1728 1171.32,-1734 1165.32,-1734 1165.32,-1734 700.59,-1734 700.59,-1734 694.59,-1734 688.59,-1728 688.59,-1722 688.59,-1722 688.59,-1296 688.59,-1296 688.59,-1290 694.59,-1284 700.59,-1284"/>
<text text-anchor="middle" x="932.955" y="-1721.2" font-family="Times New Roman,serif" font-size="11.00" fill="gray">Presenters</text>
</g>
<g id="clust3" class="cluster"><title>cluster_\App\Forms</title>
<path fill="none" stroke="gray" d="M1069.32,-1042C1069.32,-1042 1138.32,-1042 1138.32,-1042 1144.32,-1042 1150.32,-1048 1150.32,-1054 1150.32,-1054 1150.32,-1264 1150.32,-1264 1150.32,-1270 1144.32,-1276 1138.32,-1276 1138.32,-1276 1069.32,-1276 1069.32,-1276 1063.32,-1276 1057.32,-1270 1057.32,-1264 1057.32,-1264 1057.32,-1054 1057.32,-1054 1057.32,-1048 1063.32,-1042 1069.32,-1042"/>
<text text-anchor="middle" x="1103.82" y="-1263.2" font-family="Times New Roman,serif" font-size="11.00" fill="gray">Forms</text>
</g>
<g id="clust5" class="cluster"><title>cluster_\App\Model</title>
<path fill="none" stroke="gray" d="M1042.32,-260C1042.32,-260 1165.32,-260 1165.32,-260 1171.32,-260 1177.32,-266 1177.32,-272 1177.32,-272 1177.32,-1022 1177.32,-1022 1177.32,-1028 1171.32,-1034 1165.32,-1034 1165.32,-1034 1042.32,-1034 1042.32,-1034 1036.32,-1034 1030.32,-1028 1030.32,-1022 1030.32,-1022 1030.32,-272 1030.32,-272 1030.32,-266 1036.32,-260 1042.32,-260"/>
<text text-anchor="middle" x="1103.82" y="-1021.2" font-family="Times New Roman,serif" font-size="11.00" fill="gray">Model</text>
</g>
<!-- \\App\\Forms\\LoginForm -->
<g id="node1" class="node"><title>\\App\\Forms\\LoginForm</title>
<polygon fill="none" stroke="black" points="1142.32,-1248 1065.32,-1248 1065.32,-1212 1142.32,-1212 1142.32,-1248"/>
<text text-anchor="middle" x="1103.82" y="-1227.2" font-family="Courier,monospace" font-size="11.00">LoginForm</text>
</g>
<!-- \\Nette\\Object -->
<g id="node28" class="node"><title>\\Nette\\Object</title>
<ellipse fill="none" stroke="black" cx="748.59" cy="-126" rx="98.5829" ry="18"/>
<text text-anchor="middle" x="748.59" y="-122.3" font-family="Times New Roman,serif" font-size="14.00" fill="gray">\Nette\Objectette\Object</text>
</g>
<!-- \\App\\Forms\\LoginForm&#45;&gt;\\Nette\\Object -->
<g id="edge1" class="edge"><title>\\App\\Forms\\LoginForm&#45;&gt;\\Nette\\Object</title>
<path fill="none" stroke="black" d="M1065.29,-1224.62C1052.16,-1220.78 1038.64,-1214.22 1030.32,-1203 891.802,-1016.07 1123.66,-329.388 966.321,-158 934.516,-123.356 882.874,-114.713 837.976,-115.036"/>
<polygon fill="none" stroke="black" points="837.838,-111.538 827.917,-115.255 837.991,-118.536 837.838,-111.538"/>
</g>
<!-- \\App\\Forms\\UserForm -->
<g id="node2" class="node"><title>\\App\\Forms\\UserForm</title>
<polygon fill="none" stroke="black" points="1139.32,-1194 1068.32,-1194 1068.32,-1158 1139.32,-1158 1139.32,-1194"/>
<text text-anchor="middle" x="1103.82" y="-1173.2" font-family="Courier,monospace" font-size="11.00">UserForm</text>
</g>
<!-- \\App\\Forms\\UserForm&#45;&gt;\\Nette\\Object -->
<g id="edge2" class="edge"><title>\\App\\Forms\\UserForm&#45;&gt;\\Nette\\Object</title>
<path fill="none" stroke="black" d="M1067.95,-1171.34C1054.03,-1167.63 1039.22,-1160.96 1030.32,-1149 898.638,-971.913 1115.83,-320.317 966.321,-158 934.518,-123.474 883.008,-114.8 838.183,-115.076"/>
<polygon fill="none" stroke="black" points="838.064,-111.578 828.139,-115.285 838.21,-118.576 838.064,-111.578"/>
</g>
<!-- \\App\\Forms\\ChordForm -->
<g id="node3" class="node"><title>\\App\\Forms\\ChordForm</title>
<polygon fill="none" stroke="black" points="1142.32,-1140 1065.32,-1140 1065.32,-1104 1142.32,-1104 1142.32,-1140"/>
<text text-anchor="middle" x="1103.82" y="-1119.2" font-family="Courier,monospace" font-size="11.00">ChordForm</text>
</g>
<!-- \\App\\Forms\\ChordForm&#45;&gt;\\Nette\\Object -->
<g id="edge10" class="edge"><title>\\App\\Forms\\ChordForm&#45;&gt;\\Nette\\Object</title>
<path fill="none" stroke="black" d="M1064.95,-1116.47C1051.95,-1112.62 1038.6,-1106.09 1030.32,-1095 905.473,-927.752 1108,-311.248 966.321,-158 934.515,-123.597 883.136,-114.894 838.385,-115.122"/>
<polygon fill="none" stroke="black" points="838.286,-111.624 828.357,-115.32 838.424,-118.622 838.286,-111.624"/>
</g>
<!-- \\App\\Forms\\SongForm -->
<g id="node4" class="node"><title>\\App\\Forms\\SongForm</title>
<polygon fill="none" stroke="black" points="1139.32,-1086 1068.32,-1086 1068.32,-1050 1139.32,-1050 1139.32,-1086"/>
<text text-anchor="middle" x="1103.82" y="-1065.2" font-family="Courier,monospace" font-size="11.00">SongForm</text>
</g>
<!-- \\App\\Forms\\SongForm&#45;&gt;\\Nette\\Object -->
<g id="edge18" class="edge"><title>\\App\\Forms\\SongForm&#45;&gt;\\Nette\\Object</title>
<path fill="none" stroke="black" d="M1068.29,-1061.94C1054.25,-1057.66 1039.25,-1050.37 1030.32,-1038 915.516,-879.053 1099.74,-301.677 966.321,-158 934.499,-123.732 883.251,-114.999 838.577,-115.178"/>
<polygon fill="none" stroke="black" points="838.499,-111.679 828.565,-115.364 838.629,-118.677 838.499,-111.679"/>
</g>
<!-- \\App\\Presenters\\ErrorPresenter -->
<g id="node5" class="node"><title>\\App\\Presenters\\ErrorPresenter</title>
<polygon fill="none" stroke="black" points="1159.32,-1382 1048.32,-1382 1048.32,-1346 1159.32,-1346 1159.32,-1382"/>
<text text-anchor="middle" x="1103.82" y="-1361.2" font-family="Courier,monospace" font-size="11.00">ErrorPresenter</text>
</g>
<!-- \\Nette\\Application\\IPresenter -->
<g id="node29" class="node"><title>\\Nette\\Application\\IPresenter</title>
<ellipse fill="none" stroke="black" cx="748.59" cy="-218" rx="211.762" ry="18"/>
<text text-anchor="middle" x="748.59" y="-214.3" font-family="Times New Roman,serif" font-size="14.00" fill="gray">\Nette\Application\IPresenterette\Application\IPresenter</text>
</g>
<!-- \\App\\Presenters\\ErrorPresenter&#45;&gt;\\Nette\\Application\\IPresenter -->
<g id="edge3" class="edge"><title>\\App\\Presenters\\ErrorPresenter&#45;&gt;\\Nette\\Application\\IPresenter</title>
<path fill="none" stroke="black" stroke-dasharray="1,5" d="M1048.03,-1350.38C1041.4,-1346.89 1035.25,-1342.5 1030.32,-1337 877.211,-1165.93 773.197,-403.897 753.13,-246.501"/>
<polygon fill="none" stroke="black" points="756.558,-245.711 751.831,-236.23 749.614,-246.59 756.558,-245.711"/>
</g>
<!-- \\App\\Presenters\\UserPresenter -->
<g id="node6" class="node"><title>\\App\\Presenters\\UserPresenter</title>
<polygon fill="none" stroke="black" points="1155.82,-1328 1051.82,-1328 1051.82,-1292 1155.82,-1292 1155.82,-1328"/>
<text text-anchor="middle" x="1103.82" y="-1307.2" font-family="Courier,monospace" font-size="11.00">UserPresenter</text>
</g>
<!-- \\Nette\\Application\\UI\\Presenter -->
<g id="node31" class="node"><title>\\Nette\\Application\\UI\\Presenter</title>
<ellipse fill="none" stroke="black" cx="229.43" cy="-849" rx="229.359" ry="18"/>
<text text-anchor="middle" x="229.43" y="-845.3" font-family="Times New Roman,serif" font-size="14.00" fill="gray">\Nette\Application\UI\Presenterette\Application\UI\Presenter</text>
</g>
<!-- \\App\\Presenters\\UserPresenter&#45;&gt;\\Nette\\Application\\UI\\Presenter -->
<g id="edge6" class="edge"><title>\\App\\Presenters\\UserPresenter&#45;&gt;\\Nette\\Application\\UI\\Presenter</title>
<path fill="none" stroke="black" d="M1051.64,-1297.44C1043.33,-1293.2 1035.69,-1287.55 1030.32,-1280 960.034,-1181.25 1054.51,-274.155 966.321,-191 931.118,-157.806 571.562,-164.84 530.859,-191 299.759,-339.533 244.243,-714.696 232.981,-820.706"/>
<polygon fill="none" stroke="black" points="229.472,-820.626 231.946,-830.928 236.436,-821.331 229.472,-820.626"/>
</g>
<!-- \\App\\Presenters\\LoginPresenter -->
<g id="node7" class="node"><title>\\App\\Presenters\\LoginPresenter</title>
<polygon fill="none" stroke="black" points="1159.32,-1490 1048.32,-1490 1048.32,-1454 1159.32,-1454 1159.32,-1490"/>
<text text-anchor="middle" x="1103.82" y="-1469.2" font-family="Courier,monospace" font-size="11.00">LoginPresenter</text>
</g>
<!-- \\App\\Presenters\\BasePresenter -->
<g id="node8" class="node"><title>\\App\\Presenters\\BasePresenter</title>
<polygon fill="none" stroke="black" points="800.59,-1544 696.59,-1544 696.59,-1508 800.59,-1508 800.59,-1544"/>
<text text-anchor="start" x="714.59" y="-1529.2" font-family="Courier,monospace" font-size="11.00">«abstract»</text>
<text text-anchor="start" x="704.59" y="-1517.2" font-family="Courier,monospace" font-size="11.00">BasePresenter</text>
</g>
<!-- \\App\\Presenters\\LoginPresenter&#45;&gt;\\App\\Presenters\\BasePresenter -->
<g id="edge19" class="edge"><title>\\App\\Presenters\\LoginPresenter&#45;&gt;\\App\\Presenters\\BasePresenter</title>
<path fill="none" stroke="black" d="M1048.02,-1480.38C983.781,-1490.2 877.632,-1506.43 810.766,-1516.65"/>
<polygon fill="none" stroke="black" points="810.146,-1513.2 800.79,-1518.17 811.204,-1520.12 810.146,-1513.2"/>
</g>
<!-- \\App\\Presenters\\BasePresenter&#45;&gt;\\Nette\\Application\\UI\\Presenter -->
<g id="edge20" class="edge"><title>\\App\\Presenters\\BasePresenter&#45;&gt;\\Nette\\Application\\UI\\Presenter</title>
<path fill="none" stroke="black" d="M733.757,-1507.89C662.291,-1414.34 334.967,-985.846 250.411,-875.157"/>
<polygon fill="none" stroke="black" points="253.157,-872.986 244.305,-867.164 247.594,-877.235 253.157,-872.986"/>
</g>
<!-- \\App\\Presenters\\Error4xxPresenter -->
<g id="node9" class="node"><title>\\App\\Presenters\\Error4xxPresenter</title>
<polygon fill="none" stroke="black" points="1169.32,-1436 1038.32,-1436 1038.32,-1400 1169.32,-1400 1169.32,-1436"/>
<text text-anchor="middle" x="1103.82" y="-1415.2" font-family="Courier,monospace" font-size="11.00">Error4xxPresenter</text>
</g>
<!-- \\App\\Presenters\\Error4xxPresenter&#45;&gt;\\App\\Presenters\\BasePresenter -->
<g id="edge22" class="edge"><title>\\App\\Presenters\\Error4xxPresenter&#45;&gt;\\App\\Presenters\\BasePresenter</title>
<path fill="none" stroke="black" d="M1043.7,-1436.08C979.062,-1455.84 876.003,-1487.35 810.622,-1507.34"/>
<polygon fill="none" stroke="black" points="809.401,-1504.05 800.861,-1510.32 811.448,-1510.75 809.401,-1504.05"/>
</g>
<!-- \\App\\Presenters\\ChordPresenter -->
<g id="node10" class="node"><title>\\App\\Presenters\\ChordPresenter</title>
<polygon fill="none" stroke="black" points="1159.32,-1706 1048.32,-1706 1048.32,-1670 1159.32,-1670 1159.32,-1706"/>
<text text-anchor="middle" x="1103.82" y="-1685.2" font-family="Courier,monospace" font-size="11.00">ChordPresenter</text>
</g>
<!-- \\App\\Presenters\\ChordPresenter&#45;&gt;\\App\\Presenters\\BasePresenter -->
<g id="edge23" class="edge"><title>\\App\\Presenters\\ChordPresenter&#45;&gt;\\App\\Presenters\\BasePresenter</title>
<path fill="none" stroke="black" d="M1052.27,-1669.85C1044.87,-1667 1037.37,-1664 1030.32,-1661 945.178,-1624.76 848.442,-1576.66 793.645,-1548.74"/>
<polygon fill="none" stroke="black" points="795.063,-1545.53 784.566,-1544.1 791.879,-1551.77 795.063,-1545.53"/>
</g>
<!-- \\App\\Presenters\\ArtistPresenter -->
<g id="node11" class="node"><title>\\App\\Presenters\\ArtistPresenter</title>
<polygon fill="none" stroke="black" points="1162.82,-1652 1044.82,-1652 1044.82,-1616 1162.82,-1616 1162.82,-1652"/>
<text text-anchor="middle" x="1103.82" y="-1631.2" font-family="Courier,monospace" font-size="11.00">ArtistPresenter</text>
</g>
<!-- \\App\\Presenters\\ArtistPresenter&#45;&gt;\\App\\Presenters\\BasePresenter -->
<g id="edge24" class="edge"><title>\\App\\Presenters\\ArtistPresenter&#45;&gt;\\App\\Presenters\\BasePresenter</title>
<path fill="none" stroke="black" d="M1044.49,-1616.17C979.91,-1596.42 876.275,-1564.73 810.625,-1544.66"/>
<polygon fill="none" stroke="black" points="811.412,-1541.24 800.826,-1541.67 809.366,-1547.94 811.412,-1541.24"/>
</g>
<!-- \\App\\Presenters\\SongPresenter -->
<g id="node12" class="node"><title>\\App\\Presenters\\SongPresenter</title>
<polygon fill="none" stroke="black" points="1155.82,-1598 1051.82,-1598 1051.82,-1562 1155.82,-1562 1155.82,-1598"/>
<text text-anchor="middle" x="1103.82" y="-1577.2" font-family="Courier,monospace" font-size="11.00">SongPresenter</text>
</g>
<!-- \\App\\Presenters\\SongPresenter&#45;&gt;\\App\\Presenters\\BasePresenter -->
<g id="edge26" class="edge"><title>\\App\\Presenters\\SongPresenter&#45;&gt;\\App\\Presenters\\BasePresenter</title>
<path fill="none" stroke="black" d="M1051.46,-1572.15C987.667,-1562.4 878.962,-1545.78 810.88,-1535.37"/>
<polygon fill="none" stroke="black" points="811.142,-1531.87 800.728,-1533.82 810.084,-1538.79 811.142,-1531.87"/>
</g>
<!-- \\App\\Presenters\\HomepagePresenter -->
<g id="node13" class="node"><title>\\App\\Presenters\\HomepagePresenter</title>
<polygon fill="none" stroke="black" points="1169.32,-1544 1038.32,-1544 1038.32,-1508 1169.32,-1508 1169.32,-1544"/>
<text text-anchor="middle" x="1103.82" y="-1523.2" font-family="Courier,monospace" font-size="11.00">HomepagePresenter</text>
</g>
<!-- \\App\\Presenters\\HomepagePresenter&#45;&gt;\\App\\Presenters\\BasePresenter -->
<g id="edge27" class="edge"><title>\\App\\Presenters\\HomepagePresenter&#45;&gt;\\App\\Presenters\\BasePresenter</title>
<path fill="none" stroke="black" d="M1038.03,-1526C973.32,-1526 874.581,-1526 811.062,-1526"/>
<polygon fill="none" stroke="black" points="810.793,-1522.5 800.793,-1526 810.793,-1529.5 810.793,-1522.5"/>
</g>
<!-- \\App\\Model\\SongRepository -->
<g id="node14" class="node"><title>\\App\\Model\\SongRepository</title>
<polygon fill="none" stroke="black" points="1159.32,-1006 1048.32,-1006 1048.32,-970 1159.32,-970 1159.32,-1006"/>
<text text-anchor="middle" x="1103.82" y="-985.2" font-family="Courier,monospace" font-size="11.00">SongRepository</text>
</g>
<!-- \\App\\Model\\SongRepository&#45;&gt;\\Nette\\Object -->
<g id="edge4" class="edge"><title>\\App\\Model\\SongRepository&#45;&gt;\\Nette\\Object</title>
<path fill="none" stroke="black" d="M1048.23,-975.685C1041.31,-972.002 1035.02,-967.216 1030.32,-961 922.426,-818.159 1088.59,-288.751 966.321,-158 934.508,-123.979 883.536,-115.184 839.016,-115.266"/>
<polygon fill="none" stroke="black" points="838.681,-111.771 828.741,-115.439 838.799,-118.77 838.681,-111.771"/>
</g>
<!-- \\App\\Model\\Artist -->
<g id="node15" class="node"><title>\\App\\Model\\Artist</title>
<polygon fill="none" stroke="black" points="1132.32,-628 1075.32,-628 1075.32,-592 1132.32,-592 1132.32,-628"/>
<text text-anchor="middle" x="1103.82" y="-607.2" font-family="Courier,monospace" font-size="11.00">Artist</text>
</g>
<!-- \\Kdyby\\Doctrine\\Entities\\BaseEntity -->
<g id="node30" class="node"><title>\\Kdyby\\Doctrine\\Entities\\BaseEntity</title>
<ellipse fill="none" stroke="black" cx="748.59" cy="-18" rx="133.776" ry="18"/>
<text text-anchor="middle" x="748.59" y="-14.3" font-family="Times New Roman,serif" font-size="14.00" fill="gray">\Kdyby\Doctrinentities\BaseEntity</text>
</g>
<!-- \\App\\Model\\Artist&#45;&gt;\\Kdyby\\Doctrine\\Entities\\BaseEntity -->
<g id="edge5" class="edge"><title>\\App\\Model\\Artist&#45;&gt;\\Kdyby\\Doctrine\\Entities\\BaseEntity</title>
<path fill="none" stroke="black" d="M1075.26,-606.791C1059.64,-603.474 1041.11,-596.726 1030.32,-583 881.479,-393.713 1136.12,-215.74 966.321,-45 937.543,-16.0629 894.655,-6.68512 854.607,-5.53506"/>
<polygon fill="none" stroke="black" points="854.538,-2.03407 844.497,-5.41304 854.454,-9.03356 854.538,-2.03407"/>
</g>
<!-- \\App\\Model\\OneLine -->
<g id="node16" class="node"><title>\\App\\Model\\OneLine</title>
<polygon fill="none" stroke="black" points="1135.82,-574 1071.82,-574 1071.82,-538 1135.82,-538 1135.82,-574"/>
<text text-anchor="middle" x="1103.82" y="-553.2" font-family="Courier,monospace" font-size="11.00">OneLine</text>
</g>
<!-- \\App\\Model\\OneLine&#45;&gt;\\Kdyby\\Doctrine\\Entities\\BaseEntity -->
<g id="edge7" class="edge"><title>\\App\\Model\\OneLine&#45;&gt;\\Kdyby\\Doctrine\\Entities\\BaseEntity</title>
<path fill="none" stroke="black" d="M1071.68,-551.908C1056.92,-548.325 1040.37,-541.604 1030.32,-529 895.087,-359.313 1120.33,-197.852 966.321,-45 937.665,-16.5593 895.354,-7.10615 855.703,-5.76581"/>
<polygon fill="none" stroke="black" points="855.749,-2.26617 845.69,-5.59322 855.628,-9.26513 855.749,-2.26617"/>
</g>
<!-- \\App\\Model\\OnePartRepository -->
<g id="node17" class="node"><title>\\App\\Model\\OnePartRepository</title>
<polygon fill="none" stroke="black" points="1169.32,-952 1038.32,-952 1038.32,-916 1169.32,-916 1169.32,-952"/>
<text text-anchor="middle" x="1103.82" y="-931.2" font-family="Courier,monospace" font-size="11.00">OnePartRepository</text>
</g>
<!-- \\App\\Model\\OnePartRepository&#45;&gt;\\Nette\\Object -->
<g id="edge8" class="edge"><title>\\App\\Model\\OnePartRepository&#45;&gt;\\Nette\\Object</title>
<path fill="none" stroke="black" d="M1039.09,-915.775C1035.81,-913.224 1032.84,-910.315 1030.32,-907 929.255,-773.99 1080.77,-279.69 966.321,-158 934.471,-124.134 883.628,-115.312 839.189,-115.34"/>
<polygon fill="none" stroke="black" points="838.878,-111.844 828.933,-115.5 838.987,-118.844 838.878,-111.844"/>
</g>
<!-- \\App\\Model\\User -->
<g id="node18" class="node"><title>\\App\\Model\\User</title>
<polygon fill="none" stroke="black" points="1130.82,-466 1076.82,-466 1076.82,-430 1130.82,-430 1130.82,-466"/>
<text text-anchor="middle" x="1103.82" y="-445.2" font-family="Courier,monospace" font-size="11.00">User</text>
</g>
<!-- \\App\\Model\\User&#45;&gt;\\Kdyby\\Doctrine\\Entities\\BaseEntity -->
<g id="edge9" class="edge"><title>\\App\\Model\\User&#45;&gt;\\Kdyby\\Doctrine\\Entities\\BaseEntity</title>
<path fill="none" stroke="black" d="M1076.58,-444.821C1060.84,-441.511 1041.71,-434.761 1030.32,-421 922.229,-290.419 1088.83,-162.159 966.321,-45 938.272,-18.1767 898.007,-8.48617 859.777,-6.51631"/>
<polygon fill="none" stroke="black" points="859.702,-3.01175 849.587,-6.16646 859.461,-10.0076 859.702,-3.01175"/>
</g>
<!-- \\App\\Model\\Authenticator -->
<g id="node19" class="node"><title>\\App\\Model\\Authenticator</title>
<polygon fill="none" stroke="black" points="1155.82,-682 1051.82,-682 1051.82,-646 1155.82,-646 1155.82,-682"/>
<text text-anchor="middle" x="1103.82" y="-661.2" font-family="Courier,monospace" font-size="11.00">Authenticator</text>
</g>
<!-- \\App\\Model\\Authenticator&#45;&gt;\\Nette\\Object -->
<g id="edge11" class="edge"><title>\\App\\Model\\Authenticator&#45;&gt;\\Nette\\Object</title>
<path fill="none" stroke="black" d="M1051.8,-653.081C1043.58,-649.235 1035.93,-644.034 1030.32,-637 896.346,-469.126 1117.14,-310.915 966.321,-158 934.294,-125.53 884.72,-116.457 841.063,-115.986"/>
<polygon fill="none" stroke="black" points="840.966,-112.487 830.98,-116.026 840.994,-119.486 840.966,-112.487"/>
</g>
<!-- \\Nette\\Security\\IAuthenticator -->
<g id="node32" class="node"><title>\\Nette\\Security\\IAuthenticator</title>
<ellipse fill="none" stroke="black" cx="748.59" cy="-72" rx="217.962" ry="18"/>
<text text-anchor="middle" x="748.59" y="-68.3" font-family="Times New Roman,serif" font-size="14.00" fill="gray">\Nette\Security\IAuthenticatorette\Security\IAuthenticator</text>
</g>
<!-- \\App\\Model\\Authenticator&#45;&gt;\\Nette\\Security\\IAuthenticator -->
<g id="edge12" class="edge"><title>\\App\\Model\\Authenticator&#45;&gt;\\Nette\\Security\\IAuthenticator</title>
<path fill="none" stroke="black" stroke-dasharray="1,5" d="M1051.71,-653.147C1043.5,-649.295 1035.88,-644.074 1030.32,-637 881.479,-447.713 1136.12,-269.74 966.321,-99 961.38,-94.0324 956.024,-89.6412 950.338,-85.7691"/>
<polygon fill="none" stroke="black" points="952.124,-82.7581 941.781,-80.4608 948.434,-88.7065 952.124,-82.7581"/>
</g>
<!-- \\App\\Model\\Chord -->
<g id="node20" class="node"><title>\\App\\Model\\Chord</title>
<polygon fill="none" stroke="black" points="1130.82,-358 1076.82,-358 1076.82,-322 1130.82,-322 1130.82,-358"/>
<text text-anchor="middle" x="1103.82" y="-337.2" font-family="Courier,monospace" font-size="11.00">Chord</text>
</g>
<!-- \\App\\Model\\Chord&#45;&gt;\\Kdyby\\Doctrine\\Entities\\BaseEntity -->
<g id="edge13" class="edge"><title>\\App\\Model\\Chord&#45;&gt;\\Kdyby\\Doctrine\\Entities\\BaseEntity</title>
<path fill="none" stroke="black" d="M1076.54,-336.478C1060.98,-333.042 1042.07,-326.278 1030.32,-313 949.172,-221.286 1057.56,-126.68 966.321,-45 939.464,-20.958 902.668,-11.0484 867.017,-8.09048"/>
<polygon fill="none" stroke="black" points="867.209,-4.59563 857.002,-7.43459 866.752,-11.5807 867.209,-4.59563"/>
</g>
<!-- \\App\\Model\\ChordRepository -->
<g id="node21" class="node"><title>\\App\\Model\\ChordRepository</title>
<polygon fill="none" stroke="black" points="1162.82,-898 1044.82,-898 1044.82,-862 1162.82,-862 1162.82,-898"/>
<text text-anchor="middle" x="1103.82" y="-877.2" font-family="Courier,monospace" font-size="11.00">ChordRepository</text>
</g>
<!-- \\App\\Model\\ChordRepository&#45;&gt;\\Nette\\Object -->
<g id="edge14" class="edge"><title>\\App\\Model\\ChordRepository&#45;&gt;\\Nette\\Object</title>
<path fill="none" stroke="black" d="M1044.77,-865.633C1039.24,-862.27 1034.24,-858.12 1030.32,-853 936.08,-729.817 1072.95,-270.632 966.321,-158 934.481,-124.367 883.898,-115.49 839.604,-115.426"/>
<polygon fill="none" stroke="black" points="839.332,-111.93 829.38,-115.565 839.426,-118.929 839.332,-111.93"/>
</g>
<!-- \\App\\Model\\OneLineRepository -->
<g id="node22" class="node"><title>\\App\\Model\\OneLineRepository</title>
<polygon fill="none" stroke="black" points="1169.32,-844 1038.32,-844 1038.32,-808 1169.32,-808 1169.32,-844"/>
<text text-anchor="middle" x="1103.82" y="-823.2" font-family="Courier,monospace" font-size="11.00">OneLineRepository</text>
</g>
<!-- \\App\\Model\\OneLineRepository&#45;&gt;\\Nette\\Object -->
<g id="edge15" class="edge"><title>\\App\\Model\\OneLineRepository&#45;&gt;\\Nette\\Object</title>
<path fill="none" stroke="black" d="M1039.46,-807.978C1036.05,-805.378 1032.95,-802.404 1030.32,-799 942.902,-685.639 1065.13,-261.579 966.321,-158 934.413,-124.554 883.955,-115.652 839.751,-115.528"/>
<polygon fill="none" stroke="black" points="839.503,-112.031 829.546,-115.652 839.588,-119.03 839.503,-112.031"/>
</g>
<!-- \\App\\Model\\OnePart -->
<g id="node23" class="node"><title>\\App\\Model\\OnePart</title>
<polygon fill="none" stroke="black" points="1135.82,-520 1071.82,-520 1071.82,-484 1135.82,-484 1135.82,-520"/>
<text text-anchor="middle" x="1103.82" y="-499.2" font-family="Courier,monospace" font-size="11.00">OnePart</text>
</g>
<!-- \\App\\Model\\OnePart&#45;&gt;\\Kdyby\\Doctrine\\Entities\\BaseEntity -->
<g id="edge16" class="edge"><title>\\App\\Model\\OnePart&#45;&gt;\\Kdyby\\Doctrine\\Entities\\BaseEntity</title>
<path fill="none" stroke="black" d="M1071.77,-497.838C1057.03,-494.237 1040.47,-487.522 1030.32,-475 908.674,-324.885 1104.56,-179.988 966.321,-45 937.993,-17.3386 896.716,-7.75064 857.767,-6.09431"/>
<polygon fill="none" stroke="black" points="857.477,-2.58599 847.392,-5.83305 857.301,-9.58377 857.477,-2.58599"/>
</g>
<!-- \\App\\Model\\ArtistRepository -->
<g id="node24" class="node"><title>\\App\\Model\\ArtistRepository</title>
<polygon fill="none" stroke="black" points="1166.32,-790 1041.32,-790 1041.32,-754 1166.32,-754 1166.32,-790"/>
<text text-anchor="middle" x="1103.82" y="-769.2" font-family="Courier,monospace" font-size="11.00">ArtistRepository</text>
</g>
<!-- \\App\\Model\\ArtistRepository&#45;&gt;\\Nette\\Object -->
<g id="edge17" class="edge"><title>\\App\\Model\\ArtistRepository&#45;&gt;\\Nette\\Object</title>
<path fill="none" stroke="black" d="M1041.13,-755.139C1037.06,-752.273 1033.37,-748.922 1030.32,-745 949.719,-641.456 1057.33,-252.53 966.321,-158 934.384,-124.826 884.181,-115.873 840.131,-115.651"/>
<polygon fill="none" stroke="black" points="839.926,-112.152 829.961,-115.75 839.995,-119.152 839.926,-112.152"/>
</g>
<!-- \\App\\Model\\UserRepository -->
<g id="node25" class="node"><title>\\App\\Model\\UserRepository</title>
<polygon fill="none" stroke="black" points="1159.32,-736 1048.32,-736 1048.32,-700 1159.32,-700 1159.32,-736"/>
<text text-anchor="middle" x="1103.82" y="-715.2" font-family="Courier,monospace" font-size="11.00">UserRepository</text>
</g>
<!-- \\App\\Model\\UserRepository&#45;&gt;\\Nette\\Object -->
<g id="edge21" class="edge"><title>\\App\\Model\\UserRepository&#45;&gt;\\Nette\\Object</title>
<path fill="none" stroke="black" d="M1048.09,-705.324C1041.28,-701.691 1035.06,-697.016 1030.32,-691 882.74,-503.529 1132.73,-328.978 966.321,-158 934.326,-125.127 884.375,-116.126 840.487,-115.8"/>
<polygon fill="none" stroke="black" points="840.327,-112.301 830.353,-115.874 840.378,-119.3 840.327,-112.301"/>
</g>
<!-- \\App\\Model\\Song -->
<g id="node26" class="node"><title>\\App\\Model\\Song</title>
<polygon fill="none" stroke="black" points="1130.82,-412 1076.82,-412 1076.82,-376 1130.82,-376 1130.82,-412"/>
<text text-anchor="middle" x="1103.82" y="-391.2" font-family="Courier,monospace" font-size="11.00">Song</text>
</g>
<!-- \\App\\Model\\Song&#45;&gt;\\Kdyby\\Doctrine\\Entities\\BaseEntity -->
<g id="edge25" class="edge"><title>\\App\\Model\\Song&#45;&gt;\\Kdyby\\Doctrine\\Entities\\BaseEntity</title>
<path fill="none" stroke="black" d="M1076.71,-390.711C1061.02,-387.359 1041.9,-380.602 1030.32,-367 935.738,-255.896 1073.15,-144.38 966.321,-45 938.85,-19.446 900.237,-9.61233 863.199,-7.16431"/>
<polygon fill="none" stroke="black" points="862.962,-3.64888 852.805,-6.66277 862.624,-10.6407 862.962,-3.64888"/>
</g>
<!-- \\App\\Model\\CRUD -->
<g id="node27" class="node"><title>\\App\\Model\\CRUD</title>
<polygon fill="none" stroke="black" points="1130.82,-304 1076.82,-304 1076.82,-268 1130.82,-268 1130.82,-304"/>
<text text-anchor="middle" x="1103.82" y="-283.2" font-family="Courier,monospace" font-size="11.00">CRUD</text>
</g>
</g>
</svg>
